<svg width="800" height="240" viewBox="0 0 800 240" fill="none" xmlns="http://www.w3.org/2000/svg">
<path d="M144.012 129C145.291 125.925 146 122.553 146 119.015C146 104.877 134.72 93.3735 120.671 93.0176L120 93.0098H28L65 45H209L144.012 129Z" fill="#00AABA"/>
<path d="M92.9873 111.001C91.7081 114.075 91 117.448 91 120.985C91.0001 135.347 102.641 146.99 117 146.99H209L172 195H28L92.9873 111.001Z" fill="#65CCAD"/>
<path d="M366.672 97.416C378.929 97.416 389.034 102.527 395.509 110.727C401.982 118.924 404.802 130.174 402.566 142.414L402.491 142.824H344.711C346.109 148.516 349.037 152.933 353.288 155.959C357.696 159.096 363.565 160.768 370.709 160.768C379.301 160.768 386.678 158.548 396.58 153.829L397.18 153.543L397.288 154.198L399.617 168.173L399.675 168.518L399.371 168.689C390.674 173.626 381.194 176.053 370.709 176.053C358.066 176.053 347.342 172.059 339.773 165.13C332.201 158.198 327.819 148.357 327.819 136.734C327.819 114.263 344.105 97.4161 366.672 97.416ZM522.455 75.0566V98.9688H544.581V113.012H522.61V149.777C522.61 153.64 523.725 156.462 525.694 158.322C527.669 160.187 530.577 161.156 534.299 161.156C537.822 161.156 542.665 160.464 546.268 159.391L546.818 159.227L546.904 159.795L548.923 172.993L548.983 173.387L548.613 173.533C544.807 175.04 538.138 176.053 532.125 176.053C524.231 176.053 517.751 173.832 513.239 169.64C508.723 165.442 506.238 159.322 506.238 151.641V113.012H492.962V98.9688H506.471V75.0566H522.455ZM591.21 97.416C603.467 97.416 613.572 102.527 620.047 110.727C626.52 118.923 629.341 130.174 627.104 142.414L627.029 142.824H569.248C570.646 148.517 573.575 152.933 577.826 155.959C582.234 159.096 588.103 160.768 595.247 160.768C603.839 160.768 611.216 158.548 621.118 153.829L621.717 153.543L621.826 154.198L624.155 168.173L624.213 168.518L623.909 168.689C615.212 173.626 605.732 176.053 595.247 176.053C582.604 176.053 571.879 172.059 564.311 165.13C556.739 158.198 552.357 148.357 552.357 136.734C552.357 114.263 568.643 97.416 591.21 97.416ZM679.176 97.416C689.117 97.4161 698.207 100.464 701.777 102.447L702.071 102.61L702.031 102.943L700.401 116.686L700.32 117.365L699.697 117.081C694.473 114.7 687.634 112.701 679.176 112.701C671.322 112.701 664.731 115.152 660.11 119.317C655.494 123.479 652.813 129.379 652.813 136.347C652.814 143.553 655.498 149.647 660.135 153.942C664.775 158.241 671.402 160.768 679.331 160.768C686.244 160.768 694.169 158.921 700.006 156.232L700.601 155.959L700.708 156.604L703.037 170.579L703.104 170.979L702.727 171.127C695.551 173.935 687.8 176.053 679.331 176.053C666.648 176.053 655.923 172.039 648.363 165.051C640.801 158.059 636.442 148.121 636.441 136.347C636.441 124.802 640.784 115.057 648.318 108.202C655.849 101.351 666.534 97.416 679.176 97.416ZM741.434 75.0566V98.9688H763.561V113.012H741.589V149.777C741.589 153.64 742.704 156.462 744.674 158.322C746.648 160.187 749.556 161.156 753.278 161.156C756.801 161.156 761.644 160.464 765.247 159.391L765.797 159.227L765.884 159.795L767.902 172.993L767.963 173.387L767.592 173.533C763.786 175.04 757.118 176.053 751.104 176.053C743.211 176.053 736.73 173.833 732.219 169.64C727.702 165.442 725.217 159.322 725.217 151.641V113.012H711.941V98.9688H725.45V75.0566H741.434ZM322.295 70.0586V83.6035L322.189 83.7393L263.633 158.951H322.295V174.5H241.391V161.185L241.495 161.05L299.904 85.6074H241.391V70.0586H322.295ZM454.212 97.416C464.566 97.416 472.529 100.635 477.901 106.196C483.271 111.754 486 119.596 486 128.738V174.5H469.628V131.999C469.628 125.915 467.964 121.18 464.94 117.969C461.921 114.762 457.484 113.012 451.806 113.012C446.241 113.012 441.221 114.765 437.601 117.999C433.987 121.227 431.731 125.961 431.731 131.999V174.5H415.359V98.9688H431.81V107.312C434.968 103.283 442.025 97.4161 454.212 97.416ZM591.676 112.469C579.825 112.469 571.029 119.372 569.648 129.558H612.159C611.572 124.516 609.458 120.313 606.086 117.341C602.592 114.261 597.708 112.469 591.676 112.469ZM367.138 112.469C355.287 112.469 346.492 119.372 345.111 129.558H387.622C387.035 124.516 384.921 120.313 381.549 117.341C378.054 114.261 373.17 112.469 367.138 112.469Z" fill="#151515" stroke="#151515"/>
</svg>
