<svg width="800" height="240" viewBox="0 0 800 240" fill="none" xmlns="http://www.w3.org/2000/svg">
<path d="M144.001 129.009C145.283 125.931 145.993 122.556 145.993 119.014C145.993 104.651 134.353 93.0088 119.993 93.0088C119.965 93.0088 119.937 93.0097 119.909 93.0098H27.9961L64.9961 45H208.996L144.001 129.009Z" fill="#A3E0E6"/>
<path d="M92.9902 110.992C91.7084 114.069 90.999 117.445 90.999 120.986C90.9991 135.349 102.64 146.991 116.999 146.991C117.024 146.991 117.049 146.99 117.073 146.99H208.996L171.996 195H27.9961L92.9902 110.992Z" fill="#C8EDE1"/>
<path d="M241.891 174V161.355L300.924 85.1074H241.891V70.5586H321.795V83.4316L262.609 159.451H321.795V174H241.891Z" fill="white"/>
<path d="M396.795 154.28L399.124 168.255C390.507 173.146 381.113 175.553 370.709 175.553C345.633 175.553 328.32 159.715 328.32 136.734C328.32 114.53 344.39 97.916 366.672 97.916C390.895 97.916 406.5 118.102 402.074 142.324H344.08C346.797 154.513 356.269 161.268 370.709 161.268C379.405 161.268 386.858 159.016 396.795 154.28ZM344.546 130.058H388.177C387.168 119.266 379.405 111.968 367.138 111.968C354.871 111.968 345.71 119.266 344.546 130.058Z" fill="white"/>
<path d="M454.212 97.916C474.708 97.916 485.5 110.648 485.5 128.738V174H470.128V131.999C470.128 119.654 463.373 112.512 451.805 112.512C440.47 112.512 431.232 119.654 431.232 131.999V174H415.86V99.4688H431.309V108.863C433.794 105.059 440.859 97.916 454.212 97.916Z" fill="white"/>
<path d="M544.081 112.512H522.11V149.777C522.11 157.696 526.691 161.656 534.299 161.656C537.87 161.656 542.762 160.957 546.41 159.87L548.429 173.068C544.702 174.543 538.103 175.553 532.125 175.553C516.52 175.553 506.738 166.78 506.738 151.641V112.512H493.462V99.4688H506.971V75.5566H521.955V99.4688H544.081V112.512Z" fill="white"/>
<path d="M621.333 154.28L623.662 168.255C615.044 173.146 605.65 175.553 595.247 175.553C570.17 175.553 552.857 159.715 552.857 136.734C552.857 114.53 568.928 97.916 591.21 97.916C615.433 97.916 631.038 118.102 626.612 142.324H568.618C571.335 154.513 580.807 161.268 595.247 161.268C603.942 161.268 611.395 159.016 621.333 154.28ZM569.083 130.058H612.715C611.706 119.266 603.942 111.968 591.676 111.968C579.409 111.968 570.248 119.266 569.083 130.058Z" fill="white"/>
<path d="M636.941 136.346C636.941 113.521 654.099 97.916 679.175 97.916C689.035 97.916 698.041 100.944 701.535 102.885L699.904 116.626C694.625 114.22 687.715 112.201 679.175 112.201C663.26 112.201 652.313 122.139 652.313 136.346C652.313 151.02 663.26 161.268 679.331 161.268C686.318 161.268 694.315 159.404 700.215 156.687L702.544 170.662C695.401 173.457 687.715 175.553 679.331 175.553C654.176 175.553 636.941 159.637 636.941 136.346Z" fill="white"/>
<path d="M763.06 112.512H741.089V149.777C741.089 157.696 745.67 161.656 753.278 161.656C756.849 161.656 761.741 160.957 765.389 159.87L767.408 173.068C763.681 174.543 757.082 175.553 751.104 175.553C735.499 175.553 725.717 166.78 725.717 151.641V112.512H712.441V99.4688H725.95V75.5566H740.934V99.4688H763.06V112.512Z" fill="white"/>
</svg>
